HIERARCHY
ROOT Hips
{
	OFFSET 0.000000 0.000000 0.000000
	CHANNELS 6 Xposition Yposition Zposition Xrotation Yrotation Zrotation
	JOINT LeftUpLeg_virtual
	{
		OFFSET 0.000000 0.000000 0.000000
		CHANNELS 3 Xrotation Yrotation Zrotation
		JOINT LeftUpLeg
		{
			OFFSET 15.427100 -6.655098 0.678600
			CHANNELS 3 Xrotation Yrotation Zrotation
			JOINT LeftLeg
			{
				OFFSET 4.081073 -39.591068 13.024000
				CHANNELS 3 Xrotation Yrotation Zrotation
				JOINT LeftFoot
				{
					OFFSET -4.081074 -37.707932 -15.979700
					CHANNELS 3 Xrotation Yrotation Zrotation
					JOINT LeftToeBase
					{
						OFFSET 5.346399 -15.068900 20.645000
						CHANNELS 3 Xrotation Yrotation Zrotation
						JOINT LeftToe_End
						{
							OFFSET 2.754700 0.931300 11.300900
							CHANNELS 3 Xrotation Yrotation Zrotation
							End Site
							{
								OFFSET 0 0 0
							}
						}
					}
				}
			}
		}
	}
	JOINT RightUpLeg_virtual
	{
		OFFSET 0.000000 0.000000 0.000000
		CHANNELS 3 Xrotation Yrotation Zrotation
		JOINT RightUpLeg
		{
			OFFSET -15.569500 -6.655098 0.678600
			CHANNELS 3 Xrotation Yrotation Zrotation
			JOINT RightLeg
			{
				OFFSET -4.081825 -39.591045 13.023800
				CHANNELS 3 Xrotation Yrotation Zrotation
				JOINT RightFoot
				{
					OFFSET 4.081824 -37.707954 -15.979600
					CHANNELS 3 Xrotation Yrotation Zrotation
					JOINT RightToeBase
					{
						OFFSET -5.346400 -15.068900 20.645000
						CHANNELS 3 Xrotation Yrotation Zrotation
						JOINT RightToe_End
						{
							OFFSET -2.754700 0.931300 11.300900
							CHANNELS 3 Xrotation Yrotation Zrotation
							End Site
							{
								OFFSET 0 0 0
							}
						}
					}
				}
			}
		}
	}
	JOINT Spine_virtual
	{
		OFFSET 0.000000 0.000000 0.000000
		CHANNELS 3 Xrotation Yrotation Zrotation
		JOINT Spine
		{
			OFFSET -0.279200 12.230698 -2.892100
			CHANNELS 3 Xrotation Yrotation Zrotation
			JOINT Spine1
			{
				OFFSET -0.232667 10.192268 -1.242267
				CHANNELS 3 Xrotation Yrotation Zrotation
				JOINT Spine1_split
				{
					OFFSET -0.232667 10.192268 -1.242267
					CHANNELS 3 Xrotation Yrotation Zrotation
					JOINT Spine2
					{
						OFFSET -0.232667 10.192268 -1.242267
						CHANNELS 3 Xrotation Yrotation Zrotation
						JOINT Neck_virtual
						{
							OFFSET 0.000000 0.000000 0.000000
							CHANNELS 3 Xrotation Yrotation Zrotation
							JOINT Neck
							{
								OFFSET -0.418800 17.814194 8.416900
								CHANNELS 3 Xrotation Yrotation Zrotation
								JOINT Head
								{
									OFFSET 0.000000 7.031097 3.806800
									CHANNELS 3 Xrotation Yrotation Zrotation
									JOINT HeadTop_End
									{
										OFFSET 0.000000 24.646606 12.978600
										CHANNELS 3 Xrotation Yrotation Zrotation
										End Site
										{
											OFFSET 0 0 0
										}
									}
								}
							}
						}
						JOINT LeftShoulder_virtual
						{
							OFFSET 0.000000 0.000000 0.000000
							CHANNELS 3 Xrotation Yrotation Zrotation
							JOINT LeftShoulder
							{
								OFFSET 8.476499 7.247704 -3.868750
								CHANNELS 3 Xrotation Yrotation Zrotation
								JOINT LeftShoulder_split
								{
									OFFSET 8.476499 7.247704 -3.868750
									CHANNELS 3 Xrotation Yrotation Zrotation
									JOINT LeftArm
									{
										OFFSET 9.308998 -2.777710 0.208600
										CHANNELS 3 Xrotation Yrotation Zrotation
										JOINT LeftForeArm
										{
											OFFSET 29.972298 0.000000 0.000000
											CHANNELS 3 Xrotation Yrotation Zrotation
											JOINT LeftHand
											{
												OFFSET 26.026505 0.000000 0.000000
												CHANNELS 3 Xrotation Yrotation Zrotation
												End Site
												{
													OFFSET 0 0 0
												}
											}
										}
									}
								}
							}
						}
						JOINT RightShoulder_virtual
						{
							OFFSET 0.000000 0.000000 0.000000
							CHANNELS 3 Xrotation Yrotation Zrotation
							JOINT RightShoulder
							{
								OFFSET -7.570500 7.247704 -3.868750
								CHANNELS 3 Xrotation Yrotation Zrotation
								JOINT RightShoulder_split
								{
									OFFSET -7.570500 7.247704 -3.868750
									CHANNELS 3 Xrotation Yrotation Zrotation
									JOINT RightArm
									{
										OFFSET -9.308998 -2.777710 0.208500
										CHANNELS 3 Xrotation Yrotation Zrotation
										JOINT RightForeArm
										{
											OFFSET -29.972300 0.000000 0.000000
											CHANNELS 3 Xrotation Yrotation Zrotation
											JOINT RightHand
											{
												OFFSET -26.026505 0.000000 0.000000
												CHANNELS 3 Xrotation Yrotation Zrotation
												End Site
												{
													OFFSET 0 0 0
												}
											}
										}
									}
								}
							}
						}
					}
				}
			}
		}
	}
}
MOTION
Frames: 5
Frame Time: 0.03333333
-5.073343 80.804802 -7.011192 0.000000 0.000000 0.000000 21.556458 -62.919593 15.703498 -55.742308 -15.001168 21.642559 37.815742 -4.646590 4.586414 7.618983 0.336715 -14.927954 -2.199447 3.472561 -2.835548 0.000000 0.000000 0.000000 17.212567 -67.598177 14.555668 -39.053225 -2.011869 -18.595062 51.653172 -5.207110 4.485755 4.579407 -3.350619 16.926718 -5.147208 0.128804 5.960374 0.000000 0.000000 0.000000 23.789098 -66.657360 17.284263 8.704033 8.328455 -3.263310 -0.296874 11.190513 3.237890 0.154400 1.084848 0.355923 0.000000 0.000000 0.000000 11.123637 12.581329 0.678406 0.669200 9.458996 -6.070150 -11.852807 7.691887 8.721168 0.000000 0.000000 0.000000 5.204585 13.845803 1.234869 5.938140 6.476896 -8.110904 10.299105 7.456694 -2.820883 -61.480124 -33.419040 -45.562713 6.594450 -78.214928 2.892569 0.000000 0.000000 0.000000 6.532332 12.840053 1.687261 -13.723103 4.834255 -1.957376 -4.571335 -2.359808 -9.248785 -78.994628 40.297932 106.440862 -7.612386 48.110541 6.549320 0.000000 0.000000 0.000000 
-4.743934 81.910469 -12.360184 0.000000 0.000000 0.000000 20.051547 -60.996362 12.952085 -56.836244 -13.483271 19.067827 38.365302 -2.939289 3.807354 7.620405 0.611891 -14.824125 -3.243560 2.973528 -2.205917 0.000000 0.000000 0.000000 17.428136 -67.508968 13.493388 -38.226844 -3.803858 -16.071254 49.953449 -3.648892 3.917823 5.295160 -1.234423 20.456758 -6.001420 0.573056 4.528663 0.000000 0.000000 0.000000 26.295506 -67.967533 18.880064 7.899390 8.408841 -2.451759 -0.729217 11.248585 3.398659 -0.002760 0.563226 0.424668 0.000000 0.000000 0.000000 11.238841 12.843497 0.670462 1.595360 9.597836 -6.670879 -11.513946 8.578603 8.173966 0.000000 0.000000 0.000000 5.378391 13.914041 1.253775 5.793683 6.328711 -8.050066 10.162574 7.842393 -2.492565 -61.538160 -33.210022 -44.972575 5.776768 -77.173030 1.797774 0.000000 0.000000 0.000000 6.583811 13.054328 1.826928 -13.441698 5.459415 -1.863309 -5.316828 -2.574181 -10.169652 -78.648986 39.288542 105.376794 -7.369564 47.323297 6.316670 0.000000 0.000000 0.000000 
-4.350183 82.987961 -18.652962 0.000000 0.000000 0.000000 19.194153 -62.158929 11.060180 -56.621353 -8.793107 15.701179 39.014037 -1.127526 2.471854 7.781193 0.102308 -14.545887 -4.284841 2.076782 -0.588217 0.000000 0.000000 0.000000 19.703854 -68.815754 13.682921 -35.979616 -6.784132 -10.774057 46.954436 -3.068838 3.029813 4.023248 -0.158692 22.325657 -6.755503 0.822250 2.704382 0.000000 0.000000 0.000000 29.848972 -70.746246 21.497578 6.875955 8.902977 -1.054670 -0.949361 11.602797 3.674624 0.164292 0.479682 0.678871 0.000000 0.000000 0.000000 11.433253 13.347594 0.910068 2.367691 9.780559 -7.852441 -10.494686 9.698994 6.443466 0.000000 0.000000 0.000000 5.646374 14.194672 1.483594 5.673364 5.989828 -8.408478 10.562975 8.058246 -2.164644 -61.243895 -33.636359 -44.923114 7.139675 -77.344413 2.761535 0.000000 0.000000 0.000000 6.764918 13.480953 2.231611 -13.056854 6.533480 -1.510540 -6.095943 -2.847834 -10.515536 -78.091677 39.472517 103.775429 -7.010218 46.852024 5.951031 0.000000 0.000000 0.000000 
-4.237733 83.448074 -25.337921 0.000000 0.000000 0.000000 20.219783 -66.858919 11.333472 -55.342055 -2.832536 12.133723 39.997926 0.352698 0.879528 7.815727 -0.920298 -13.949193 -4.554262 1.043182 1.426274 0.000000 0.000000 0.000000 24.034083 -72.005377 15.982349 -33.351814 -10.051386 -4.971332 44.984538 -3.851438 2.267116 0.608109 -1.088889 21.364731 -6.645070 0.794587 0.939725 0.000000 0.000000 0.000000 35.835277 -74.488616 26.589510 5.879142 9.614095 0.532263 -1.003083 12.178230 4.049080 0.341318 0.444316 0.884702 0.000000 0.000000 0.000000 11.518240 13.997959 1.370423 2.968026 9.930510 -9.211430 -9.276331 10.950654 3.934708 0.000000 0.000000 0.000000 5.894084 14.634140 1.871441 5.628601 5.618451 -9.088130 11.448250 8.012357 -1.854146 -60.367951 -34.545017 -45.202882 10.096416 -78.215481 5.263934 0.000000 0.000000 0.000000 7.038583 14.064297 2.820498 -12.645421 7.873927 -1.014379 -6.933701 -2.881884 -10.590462 -77.143175 40.424137 102.005125 -6.584320 46.696880 5.472051 0.000000 0.000000 0.000000 
-4.381526 82.893997 -32.132965 0.000000 0.000000 0.000000 25.134630 -73.754746 15.840365 -54.155535 2.584919 8.865078 41.546712 1.069867 -0.638801 7.857462 -2.178073 -13.120985 -3.512871 0.243747 2.852165 0.000000 0.000000 0.000000 31.855678 -76.819780 22.586628 -30.948284 -12.687146 -1.428708 45.654767 -5.787754 1.859371 -4.332873 -3.893570 17.359377 -6.021911 0.488602 -0.361811 0.000000 0.000000 0.000000 44.952658 -78.043285 35.090336 5.009779 10.413375 1.909750 -0.997324 12.879825 4.494496 0.488060 0.530685 0.953315 0.000000 0.000000 0.000000 11.395414 14.690152 1.940819 3.423724 9.863877 -10.281233 -8.345299 12.129776 1.302671 0.000000 0.000000 0.000000 6.061549 15.186328 2.318840 5.731710 5.463809 -10.133056 11.965893 7.308805 -1.042538 -58.875527 -35.644251 -45.513464 13.625898 -79.143055 8.397624 0.000000 0.000000 0.000000 7.271149 14.741647 3.458692 -12.363549 9.219917 -0.485850 -7.157920 -2.438144 -10.343124 -75.899234 41.267740 100.418507 -6.188485 47.080269 4.941081 0.000000 0.000000 0.000000 
